<svg width="40" height="41" viewBox="0 0 40 41" fill="none" xmlns="http://www.w3.org/2000/svg">
<path d="M5.71429 0.857147C2.5625 0.857147 0 3.41965 0 6.57143V35.1429C0 38.2946 2.5625 40.8571 5.71429 40.8571H14.4821V27.8393H9.76786V20.8571H14.4821V17.8482C14.4821 10.0714 18 6.46429 25.6429 6.46429C27.0893 6.46429 29.5893 6.75 30.6161 7.03572V13.3571C30.0804 13.3036 29.1429 13.2679 27.9732 13.2679C24.2232 13.2679 22.7768 14.6875 22.7768 18.375V20.8571H30.2411L28.9554 27.8393H22.7679V40.8571H34.2857C37.4375 40.8571 40 38.2946 40 35.1429V6.57143C40 3.41965 37.4375 0.857147 34.2857 0.857147H5.71429Z" fill="#614C6D" fill-opacity="0.8"/>
</svg>
