<svg width="40" height="41" viewBox="0 0 40 41" fill="none" xmlns="http://www.w3.org/2000/svg">
<path d="M20.0089 10.5893C14.3303 10.5893 9.74998 15.1696 9.74998 20.8482C9.74998 26.5268 14.3303 31.1071 20.0089 31.1071C25.6875 31.1071 30.2678 26.5268 30.2678 20.8482C30.2678 15.1696 25.6875 10.5893 20.0089 10.5893ZM20.0089 27.5179C16.3393 27.5179 13.3393 24.5268 13.3393 20.8482C13.3393 17.1696 16.3303 14.1786 20.0089 14.1786C23.6875 14.1786 26.6786 17.1696 26.6786 20.8482C26.6786 24.5268 23.6786 27.5179 20.0089 27.5179ZM33.0803 10.1696C33.0803 11.5 32.0089 12.5625 30.6875 12.5625C29.3571 12.5625 28.2946 11.4911 28.2946 10.1696C28.2946 8.84822 29.3661 7.77679 30.6875 7.77679C32.0089 7.77679 33.0803 8.84822 33.0803 10.1696ZM39.875 12.5982C39.7232 9.39286 38.9911 6.55358 36.6428 4.21429C34.3036 1.875 31.4643 1.14286 28.2589 0.982147C24.9553 0.794647 15.0536 0.794647 11.75 0.982147C8.55355 1.13393 5.71427 1.86608 3.36605 4.20536C1.01784 6.54465 0.294625 9.38393 0.133911 12.5893C-0.0535889 15.8929 -0.0535889 25.7946 0.133911 29.0982C0.285697 32.3036 1.01784 35.1429 3.36605 37.4821C5.71427 39.8214 8.54463 40.5536 11.75 40.7143C15.0536 40.9018 24.9553 40.9018 28.2589 40.7143C31.4643 40.5625 34.3036 39.8304 36.6428 37.4821C38.9821 35.1429 39.7143 32.3036 39.875 29.0982C40.0625 25.7946 40.0625 15.9018 39.875 12.5982ZM35.6071 32.6429C34.9107 34.3929 33.5625 35.7411 31.8036 36.4464C29.1696 37.4911 22.9196 37.25 20.0089 37.25C17.0982 37.25 10.8393 37.4821 8.21427 36.4464C6.46427 35.75 5.11605 34.4018 4.4107 32.6429C3.36605 30.0089 3.60713 23.7589 3.60713 20.8482C3.60713 17.9375 3.37498 11.6786 4.4107 9.05358C5.10713 7.30358 6.45534 5.95536 8.21427 5.25C10.8482 4.20536 17.0982 4.44643 20.0089 4.44643C22.9196 4.44643 29.1786 4.21429 31.8036 5.25C33.5536 5.94643 34.9018 7.29465 35.6071 9.05358C36.6518 11.6875 36.4107 17.9375 36.4107 20.8482C36.4107 23.7589 36.6518 30.0179 35.6071 32.6429Z" fill="#614C6D" fill-opacity="0.8"/>
</svg>
